<svg width="240" height="90" viewBox="0 0 240 94" fill="none" xmlns="http://www.w3.org/2000/svg">
<g clip-path="url(#clip0_1778_10245)">
<path d="M191.576 55.6248V38.7958C191.576 38.7958 193.83 43.1714 196.669 48.4444C196.989 49.027 197.47 49.5059 198.055 49.8241C198.64 50.1423 199.305 50.2865 199.97 50.2395C200.635 50.2851 201.299 50.1403 201.884 49.8223C202.469 49.5042 202.95 49.0261 203.271 48.4444C206.065 43.1714 208.364 38.7958 208.364 38.7958V55.6248H215.912C215.912 52.618 215.912 38.0666 215.912 25.7029C215.98 24.9056 215.801 24.1067 215.398 23.4143C214.995 22.722 214.388 22.1697 213.659 21.8323C211.834 21.0133 210.02 21.8323 208.882 23.661L199.948 38.2461C199.508 37.5393 194.213 28.9453 191.013 23.661C189.886 21.7986 188.05 21.0133 186.236 21.8323C185.507 22.1697 184.901 22.722 184.498 23.4143C184.094 24.1067 183.915 24.9056 183.983 25.7029C183.983 38.0441 183.983 52.6292 183.983 55.6248H191.576Z" fill="#fff"/>
<path d="M160.064 50.0934H171.725L174.091 55.6357H182.304C181.718 54.166 169.088 23.874 169.088 23.874C168.874 23.1819 168.446 22.5745 167.866 22.1376C167.285 21.7007 166.582 21.4565 165.855 21.4394C165.141 21.4725 164.455 21.7241 163.891 22.1598C163.326 22.5956 162.911 23.1942 162.7 23.874C162.7 23.874 150.059 54.166 149.518 55.6357H157.743L160.064 50.0934ZM165.889 34.8128L168.919 42.4531H162.858L165.889 34.8128Z" fill="#fff"/>
<path d="M137.733 56.4098C139.308 56.4581 140.875 56.1688 142.328 55.5615C143.781 54.9542 145.086 54.043 146.154 52.8897C147.223 51.7364 148.03 50.368 148.521 48.877C149.012 47.3861 149.175 45.8075 149 44.2481C148.606 39.7604 146.499 37.5166 143.998 36.1029C141.744 34.8688 141.034 34.4088 139.097 33.343C137.654 32.5464 136.595 31.6601 136.618 30.6616C136.618 28.2719 139.063 28.5075 140.674 29.0684C142.285 29.6294 145.012 30.9196 145.012 30.9196L147.986 23.5934C146.558 22.891 145.091 22.2692 143.592 21.731C142.551 21.341 141.47 21.0627 140.37 20.9008C129.666 19.5882 125.385 31.5255 131.064 37.3146C132.26 38.5721 133.652 39.6291 135.187 40.4448C136.483 41.174 137.947 41.9706 137.947 41.9706C139.975 42.9691 141.034 44.0574 141.001 45.6169C140.991 45.9646 140.911 46.3069 140.767 46.6238C140.623 46.9407 140.417 47.226 140.161 47.4629C139.905 47.6999 139.605 47.8839 139.277 48.0042C138.949 48.1245 138.601 48.1787 138.252 48.1637C137.45 48.0955 136.672 47.8606 135.968 47.4741C135.263 47.0876 134.648 46.558 134.162 45.9198C131.582 43.1374 127.098 44.7979 127.402 48.6349C127.684 52.0007 132.044 56.2303 137.733 56.4098Z" fill="#fff"/>
<path d="M73.6947 54.2334C73.9578 54.5983 74.2937 54.9053 74.6815 55.135C75.0692 55.3647 75.5003 55.5123 75.948 55.5685H91.2817V47.9618H80.6236V42.1615H89.941V34.7567H80.6236V29.1471H91.2817V21.5292H75.948C75.5014 21.5847 75.0711 21.7308 74.6835 21.9585C74.2959 22.1862 73.9594 22.4907 73.6947 22.8531C73.0338 23.7041 72.702 24.7632 72.7596 25.8374V51.2603C72.7047 52.3307 73.0364 53.3854 73.6947 54.2334Z" fill="#fff"/>
<path d="M19.6038 23.874C19.3891 23.1819 18.9614 22.5745 18.3812 22.1376C17.8009 21.7007 17.0975 21.4565 16.3703 21.4394C15.6529 21.468 14.962 21.7175 14.3929 22.1536C13.8239 22.5896 13.4047 23.1907 13.1931 23.874C13.1931 23.874 0.574594 54.166 0 55.6357H8.21332L10.5793 50.0934H22.2064L24.5723 55.6357H32.7857C32.2449 54.166 19.6038 23.874 19.6038 23.874ZM13.3847 42.4755L16.4041 34.8352L19.4348 42.4755H13.3847Z" fill="#fff"/>
<path d="M97.6925 55.6363H105.579V39.3571C105.579 39.3571 110.807 47.4014 114.716 53.7963C115.174 54.7029 115.927 55.4283 116.851 55.8541C117.776 56.28 118.819 56.3812 119.809 56.1412C122.062 55.7036 122.456 53.8412 122.456 52.0125V21.44H114.57V38.9308L104.802 23.0892C104.358 22.2299 103.611 21.5643 102.704 21.2205C101.797 20.8767 100.795 20.879 99.8895 21.2268C97.5685 21.8551 97.7826 24.5926 97.7826 24.5926L97.6925 55.6363Z" fill="#fff"/>
<path d="M30.7578 29.4052C31.3438 29.6701 31.9856 29.7894 32.6281 29.753H36.6615V55.6246H44.2551V29.7305H54.395V55.6246H62V29.753H66.0334C66.6795 29.7895 67.325 29.6702 67.9149 29.4052C68.6797 29.1112 69.3374 28.594 69.8018 27.9213C70.2662 27.2486 70.5157 26.4518 70.5175 25.6355C70.5175 24.5643 70.0901 23.537 69.3295 22.7795C68.5689 22.0221 67.5372 21.5966 66.4615 21.5966H32.2337C31.158 21.5966 30.1264 22.0221 29.3657 22.7795C28.6051 23.537 28.1778 24.5643 28.1778 25.6355C28.1778 26.4492 28.4239 27.2441 28.8841 27.9165C29.3443 28.5889 29.9972 29.1077 30.7578 29.4052Z" fill="#fff"/>
<path d="M240 60.0115C240.015 58.963 239.612 57.9514 238.879 57.1984C238.146 56.4455 237.143 56.0127 236.09 55.995C235.386 55.9931 234.695 56.1874 234.096 56.556C209.869 70.2817 183.303 79.4331 155.737 83.5496C134.268 86.6339 112.447 86.3765 91.0562 82.7866C54.4061 76.6497 30.9942 62.7378 30.7576 62.5919L26.6116 69.4133C27.603 70.0079 51.3078 84.1442 89.3775 90.5728C101.43 92.6158 113.633 93.6441 125.859 93.6469C136.158 93.6528 146.444 92.9254 156.639 91.4704C185.208 87.2392 212.744 77.7832 237.859 63.5792L238.017 63.5007L238.163 63.4222C238.732 63.0522 239.198 62.546 239.519 61.9501C239.84 61.3542 240.005 60.6876 240 60.0115Z" fill="#fff"/>
</g>
<defs>
<clipPath id="clip0_1778_10245">
<rect width="240" height="93.6585" fill="white"/>
</clipPath>
</defs>
</svg>
